<?xml version="1.0" standalone="no"?>
<!DOCTYPE svg PUBLIC "-//W3C//DTD SVG 20010904//EN"
 "http://www.w3.org/TR/2001/REC-SVG-20010904/DTD/svg10.dtd">
<svg version="1.0" xmlns="http://www.w3.org/2000/svg"
 width="180.000000pt" height="60.000000pt" viewBox="0 0 180.000000 60.000000"
 preserveAspectRatio="xMidYMid meet">
<metadata>
Created by potrace 1.13, written by Peter Selinger 2001-2015
</metadata>
<g transform="translate(0.000000,60.000000) scale(0.100000,-0.100000)"
fill="#000000" stroke="none">
<path d="M0 300 l0 -300 900 0 900 0 0 300 0 300 -900 0 -900 0 0 -300z m1790
0 l0 -290 -890 0 -890 0 0 290 0 290 890 0 890 0 0 -290z"/>
<path d="M700 500 l-35 -7 37 -2 c20 0 40 -6 43 -11 4 -6 -12 -31 -34 -55 -23
-25 -41 -50 -41 -57 0 -7 -6 -25 -14 -40 -8 -14 -19 -43 -26 -63 -7 -20 -26
-51 -43 -70 -18 -18 -39 -43 -48 -56 -21 -31 -49 -19 -49 21 0 29 -1 30 -22
16 -13 -8 -54 -18 -93 -22 -69 -6 -200 -45 -219 -64 -6 -6 -24 -10 -41 -10
-18 0 -25 3 -18 8 9 6 7 11 -7 20 -12 7 -20 8 -20 2 0 -5 4 -10 10 -10 5 0 7
-7 4 -15 -14 -36 80 -25 139 17 35 25 88 32 172 23 l66 -7 -20 -34 -20 -34 20
0 c27 0 58 16 94 51 28 26 34 28 61 17 17 -6 38 -9 47 -5 13 5 14 11 4 37 -10
25 -7 47 16 138 25 96 32 111 67 143 23 21 40 46 40 58 0 22 -9 24 -70 11z"/>
</g>
</svg>
